<svg xmlns="http://www.w3.org/2000/svg" viewBox="0 0 1280 1280" width="72" height="72"><title>Profile Icon</title><circle cx="640" cy="640" r="640" style="fill:#cddae0"/><path d="M676.82,757s142.79-1,166.94,45.84,31.72,159.51,11.38,170-120.94,32.83-179.47,1.56-51-160.13-38.91-187.83S676.82,757,676.82,757Z" style="fill:#5e7b8b;stroke:#cddae0;stroke-miterlimit:10;stroke-width:8px"/><path d="M576.61,809.27S434,816.73,407.73,771.07s-39.08-157.89-19.25-169.28,119.29-38.31,179.21-9.73,58.4,157.63,47.57,185.85S576.61,809.27,576.61,809.27Z" style="fill:#5e7b8b;stroke:#cddae0;stroke-miterlimit:10;stroke-width:8px"/><path d="M853.1,611.22s-6.4,141.42-54.8,162.92S636,797.3,626.49,776.63s-26.83-121.44,7.69-177.78S798.11,556.6,825.39,570,853.1,611.22,853.1,611.22Z" style="fill:#5e7b8b;stroke:#cddae0;stroke-miterlimit:10;stroke-width:8px"/><path d="M417.17,975.55s-6.92-141.4,39.24-167.27,159.43-38.07,170.84-18.36,38.12,118.43,9,177.71S477.05,1024.85,448.63,1014,417.17,975.55,417.17,975.55Z" style="fill:#5e7b8b;stroke:#cddae0;stroke-miterlimit:10;stroke-width:8px"/><ellipse cx="627.61" cy="782.47" rx="28.1" ry="27.86" style="fill:#cddae0"/><path d="M614.46,253.58S533,330.21,510.91,347.28c-21,16.21-75.42,57.41-62,108.5,16,60.75,77.61,82,120.76,57.12,30.78-17.72,51.59-70.84,45.84-112.95C609.23,353.91,606.48,308.38,614.46,253.58Z" style="fill:#a3c8d5"/><path d="M806.61,264.55S745.53,322,729,334.81c-15.72,12.15-56.56,43-46.47,81.35,12,45.54,58.18,61.45,90.53,42.82,23.08-13.29,38.69-53.11,34.37-84.69C802.69,339.78,800.63,305.64,806.61,264.55Z" style="fill:#a3c8d5"/><path d="M821.66,77.88s-44.92,42.25-57.09,51.66C753,138.48,723,161.19,730.4,189.36c8.81,33.49,42.79,45.19,66.57,31.49,17-9.77,28.45-39,25.27-62.27C818.77,133.2,817.26,108.1,821.66,77.88Z" style="fill:#a3c8d5"/></svg>