<svg xmlns="http://www.w3.org/2000/svg" version="1.1" viewBox="0 0 180 180">
  <rect width="180" height="180" style="fill:#fff" />
  <path
    d="M43.56,141.06H37.08q-.34-16.41-1.89-30.87h-.06l-9.87, 30.87H20.32l-9.81-30.87h-.06q-1.08,13.89-1.37,30.87H3.17Q3.74,120.41,6, 102.33h8l9.35,28.46h.06l9.41-28.46h7.69q2.52,21.17,3,38.73"
    style="fill:#00758f" />
  <path
    d="M71.68,112.48q-4,21.49-10.44,31.23-5.06,7.51-11.08,7.51a10.92,10.92,0,0, 1-4-1V146.8a19.27,19.27,0,0,0,2.7.17,6.52,6.52,0,0,0,4.54-1.55,5.66,5.66,0,0,0, 2.06-4.24,28.29,28.29,0,0,0-1.61-6.6l-7.11-22.1h6.37L58.25,129q1.72,5.63,1.44, 7.86a108,108,0,0,0,5.85-24.39Z"
    style="fill:#00758f" />
  <polygon points="157.99 141.06 139.57 141.06 139.57 102.33 145.76 102.33 145.76 136.3 157.99 136.3 157.99 141.06"
    style="fill:#f29111" />
  <path
    d="M134.75,142l-7.12-3.51a13.81,13.81,0,0,0,1.78-1.73q4.53-5.34,4.53-15.78, 0-19.23-15.09-19.23-7.39,0-11.53,4.88-4.54,5.34-4.54,15.72,0,10.22,4,15,3.67, 4.3,11.08,4.31A18,18,0,0,0,123,141l9.27,5.39Zm-23.07-8.69q-2.36-3.78-2.36-12.16, 0-14.62,8.9-14.63a7.46,7.46,0,0,1,6.83,3.5q2.36,3.78,2.35,12,0,14.75-8.89, 14.75a7.46,7.46,0,0,1-6.83-3.51"
    style="fill:#f29111;fill-rule:evenodd" />
  <path
    d="M100.08,130.33a10.27,10.27,0,0,1-3.61,8.09q-3.61,3.15-9.7,3.15a19.44,19.44,0,0, 1-11-3.61l1.66-3.33a18.87,18.87,0,0,0,8.32,2.29,8.77,8.77,0,0,0,5.48-1.54,5.29, 5.29,0,0,0,2.11-4.3c0-2.31-1.61-4.27-4.55-5.92-2.72-1.49-8.15-4.6-8.15-4.6-2.94-2.15-4.41-4.45-4.41-8.25a9.66, 9.66,0,0,1,3.29-7.6,12.49,12.49,0,0,1,8.53-2.9,17.68,17.68,0,0,1,9.81,2.87L96.35, 108a19,19,0,0,0-7.46-1.61,6.64,6.64,0,0,0-4.58,1.44,4.78,4.78,0,0,0-1.74,3.67c0, 2.29,1.64,4.28,4.66,6,2.76,1.5,8.32,4.67,8.32,4.67,3,2.14,4.53,4.42,4.53,8.19"
    style="fill:#f29111" />
  <path
    d="M165.76,89.35a21.74,21.74,0,0,0-9.08,1.31c-.7.28-1.82.28-1.92,1.17.38.38.43,1, .76,1.5A10.93,10.93,0,0,0,158,96.19c1,.75,2,1.49,3,2.15,1.82,1.12,3.88,1.78, 5.65,2.9,1,.66,2.06,1.5,3.1,2.2.51.37.84,1,1.49,1.22v-.15c-.33-.42-.42-1-.74-1.49s-.94-.89-1.41-1.36a22.24, 22.24,0,0,0-4.87-4.72c-1.49-1-4.77-2.44-5.38-4.17l-.09-.09a18.72,18.72,0,0,0, 3.23-.76c1.59-.42,3-.32,4.67-.74.75-.19,1.5-.43,2.26-.66V90.1c-.85-.84-1.46-2-2.35-2.76a62,62,0,0,0-7.72-5.76c-1.45-.93-3.32-1.54-4.87-2.34-.56-.28-1.49-.42-1.82-.89a19,19,0,0,1-1.92-3.6c-1.36-2.57-2.67-5.43-3.84-8.15A50.24,50.24,0,0,0,144,61.27c-4.82-8-10.06-12.78-18.11-17.5a22,22,0,0,0-6-1.92c-1.17-.05-2.34-.14-3.51-.19A18.46,18.46,0,0,1,114.19,40c-2.67-1.68-9.55-5.33-11.52-.51-1.26,3,1.88,6,3,7.58A21.31,21.31,0,0,1,108,50.6c.33.79.42,1.64.75,2.48a56.92,56.92,0,0,0,2.43,6.27,23.37,23.37,0,0,0,1.73,2.9c.38.52,1,.75,1.17,1.59-.65.94-.7,2.34-1.07,3.51-1.69,5.29-1,11.85,1.35,15.73.75,1.17,2.53,3.74,4.92,2.76,2.1-.84,1.64-3.51,2.25-5.85.14-.56,0-.93.32-1.31v.1c.66,1.3,1.31,2.57,1.92,3.88a26.68,26.68,0,0,0,6.09,6.27c1.12.84,2,2.29,3.41,2.81V91.6h-.09a5.14,5.14,0,0,0-1.08-.94,22.86,22.86,0,0,1-2.43-2.81,59.54,59.54,0,0,1-5.24-8.51c-.75-1.46-1.41-3-2-4.5-.28-.56-.28-1.4-.74-1.68a17.13,17.13,0,0,0-2.25,3.18c-.89,2-1,4.49-1.31,7.07-.19,0-.1,0-.19.09-1.49-.37-2-1.92-2.57-3.23a20.19,20.19,0,0,1-.42-12.5c.32-1,1.73-4.07,1.17-5-.29-.89-1.22-1.4-1.74-2.11a19.54,19.54,0,0,1-1.68-3c-1.12-2.62-1.69-5.53-2.9-8.15a24.89,24.89,0,0,0-2.34-3.6,23.85,23.85,0,0,1-2.58-3.65c-.23-.52-.56-1.36-.18-1.92a.74.74,0,0,1,.65-.61c.61-.51,2.34.14,3,.42a23.91,23.91,0,0,1,4.63,2.34c.66.47,1.36,1.36,2.2,1.59h1c1.49.33,3.18.1,4.58.52a29.38,29.38,0,0,1,6.74,3.23,41.49,41.49,0,0,1,14.6,16c.57,1.08.8,2.06,1.32,3.18,1,2.3,2.2,4.64,3.18,6.89a30.92,30.92,0,0,0,3.32,6.27c.7,1,3.51,1.5,4.78,2,.93.42,2.38.8,3.23,1.31,1.59,1,3.18,2.11,4.68,3.18.74.57,3.08,1.73,3.22,2.67"
    style="fill:#00758f;fill-rule:evenodd" />
  <path
    d="M170.23,141.06h1v-4.75h-1.45l-1.19,3.24-1.29-3.24h-1.4v4.75h.91v-3.61h.06l1.35,3.61h.7l1.35-3.61Zm-7.82,0h1v-3.94h1.34v-.81H161v.81h1.4Z"
    style="fill:#f29111" />
</svg>